<svg id="Layer_1" data-name="Layer 1" xmlns="http://www.w3.org/2000/svg" viewBox="0 0 751.5 153"><defs><style>.cls-1{fill:none;stroke:#658b28;stroke-miterlimit:10;stroke-width:3px;}.cls-2{fill:#658b28;}</style></defs><path class="cls-1" d="M736.44,598.76a97.67,97.67,0,0,1-59.76,19.86c-50.39,0-91.22-36.3-91.22-81a74.17,74.17,0,0,1,14.23-43.44c-13.29,24-2.74,59.12,27.95,85.38C661.83,608.77,708.89,616.67,736.44,598.76Z" transform="translate(-583.96 -467.12)"/><path class="cls-1" d="M754.3,549.32c-.47-2.37-4-4.76-8.17-5.58-1.16-.19-2.36-.38-3.54-.55-18.66-2.72-33.36-2.89-32.87-.38s16,6.74,34.67,9.47l3.55.48C752,553.12,754.76,551.66,754.3,549.32Zm-22.08,32.24c-15.43-13.23-29.34-22.73-31.06-21.28s9.39,13.4,24.83,26.6l3,2.52c3.54,2.75,7.49,3.86,9.11,2.49s.29-4.77-2.92-7.79C734.18,583.25,733.2,582.4,732.22,581.56Zm-13.5-72.51c.72-.59,1.4-1.21,2.06-1.8a5,5,0,0,0-.09-7.39,7.24,7.24,0,0,0-8.64-.09c-.71.57-1.4,1.16-2.11,1.76-10.94,9.38-17.83,18.65-15.4,20.72S707.78,518.43,718.72,509.05Zm-27.1,15.7c-12.15-10.4-29.15-12.7-38-5.14s-6.16,22.12,6,32.52,29.14,12.7,38,5.13S703.76,535.14,691.62,524.75Zm-32.17-45.2c3.19,16,8.15,29.27,11.07,29.69s2.75-12.17-.44-28.12c-.2-1-.42-2.05-.64-3.05-1-3.52-3.78-6.59-6.53-7s-4.44,2-4,5.45C659.06,477.52,659.26,478.54,659.45,479.55Zm-9.37,37c1.74-1.48-9.39-13.37-24.82-26.6-1-.85-2-1.69-3-2.49-3.54-2.77-7.48-3.89-9.1-2.5s-.3,4.76,2.92,7.78c.95.84,1.93,1.69,2.91,2.53C634.46,508.54,648.37,518.05,650.08,516.59ZM614,478.83a7.3,7.3,0,0,1-.67.36c-1.25.87-2.47,1.78-3.63,2.77a43.8,43.8,0,0,0-10,12.17,83.76,83.76,0,0,1,14-15.11A1.66,1.66,0,0,0,614,478.83Z" transform="translate(-583.96 -467.12)"/><path class="cls-1" d="M723.61,497.36c-33.78-28.9-80-36.91-107.73-19.9a4,4,0,0,1-.46.38,6.66,6.66,0,0,1-.76.55c-.25.15-.47.32-.71.44a1.66,1.66,0,0,1-.3.19,83.76,83.76,0,0,0-14,15.11c-13.29,24-2.74,59.12,27.95,85.38,34.19,29.26,81.25,37.16,108.8,19.25a45.1,45.1,0,0,0,5.15-3.85C768.08,572.22,760,528.55,723.61,497.36Zm-13.67,4.17c.71-.6,1.4-1.19,2.11-1.76a7.24,7.24,0,0,1,8.64.09,5,5,0,0,1,.09,7.39c-.66.59-1.34,1.21-2.06,1.8-10.94,9.38-21.76,15.27-24.18,13.2S699,510.91,709.94,501.53Zm-47-30.45c2.75.4,5.55,3.47,6.53,7,.22,1,.44,2,.64,3.05,3.19,15.95,3.38,28.56.44,28.12s-7.88-13.71-11.07-29.69c-.19-1-.39-2-.56-3C658.47,473.07,660.19,470.68,662.91,471.08Zm28.71,53.67c12.14,10.39,14.81,25,6,32.51s-25.83,5.26-38-5.13-14.82-25-6-32.52S679.47,514.35,691.62,524.75Zm46.44,67.14c-1.62,1.37-5.57.26-9.11-2.49l-3-2.52c-15.44-13.2-26.57-25.12-24.83-26.6s15.63,8.05,31.06,21.28c1,.84,2,1.69,2.92,2.54C738.35,587.12,739.65,590.5,738.06,591.89ZM622.29,487.5c1,.8,2,1.64,3,2.49,15.43,13.23,26.56,25.12,24.82,26.6s-15.62-8.05-31.06-21.28c-1-.84-2-1.69-2.91-2.53-3.22-3-4.52-6.4-2.92-7.78S618.75,484.73,622.29,487.5Zm-17.18,45.65c-4.14-.84-7.7-3.23-8.16-5.57s2.33-3.83,6.35-3.47c.29,0,.56.07.86.13.88.1,1.79.23,2.7.36,18.64,2.72,34.17,7,34.66,9.48s-14.2,2.33-32.87-.4l-1.72-.25C606.32,533.32,605.7,533.24,605.11,533.15Zm34.08,44a7.25,7.25,0,0,1-8.64-.08,5,5,0,0,1-.09-7.4l.49-.44c.51-.44,1-.91,1.57-1.35,10.94-9.36,21.76-15.28,24.19-13.21S652.24,566,641.3,575.35c-.59.48-1.15,1-1.74,1.46Zm49.14,28.69c-2.72-.4-5.47-3.36-6.48-6.84a.35.35,0,0,1-.05-.13c-.22-1-.44-2-.63-3.06-3.19-16-3.39-28.55-.45-28.12s7.88,13.71,11.07,29.68c.19,1,.39,2,.56,3a8.34,8.34,0,0,1,.08,1.08C692.4,604.29,690.76,606.15,688.33,605.79Zm59.61-53-3.55-.48c-18.65-2.73-34.18-7-34.67-9.47s14.21-2.34,32.87.38c1.18.17,2.38.36,3.54.55,4.14.82,7.7,3.21,8.17,5.58S752,553.12,747.94,552.76Z" transform="translate(-583.96 -467.12)"/><path class="cls-1" d="M650.08,516.59c-1.71,1.46-15.62-8.05-31.06-21.28-1-.84-2-1.69-2.91-2.53-3.22-3-4.52-6.4-2.92-7.78s5.56-.27,9.1,2.5c1,.8,2,1.64,3,2.49C640.69,503.22,651.82,515.11,650.08,516.59Z" transform="translate(-583.96 -467.12)"/><path class="cls-1" d="M738.06,591.89c-1.62,1.37-5.57.26-9.11-2.49l-3-2.52c-15.44-13.2-26.57-25.12-24.83-26.6s15.63,8.05,31.06,21.28c1,.84,2,1.69,2.92,2.54C738.35,587.12,739.65,590.5,738.06,591.89Z" transform="translate(-583.96 -467.12)"/><path class="cls-1" d="M641.52,534.08c.49,2.5-14.2,2.33-32.87-.4l-1.72-.25c-.61-.11-1.23-.19-1.82-.28-4.14-.84-7.7-3.23-8.16-5.57s2.33-3.83,6.35-3.47c.29,0,.56.07.86.13.88.1,1.79.23,2.7.36C625.5,527.32,641,531.57,641.52,534.08Z" transform="translate(-583.96 -467.12)"/><path class="cls-1" d="M641.3,575.35c-.59.48-1.15,1-1.74,1.46l-.37.29a7.25,7.25,0,0,1-8.64-.08,5,5,0,0,1-.09-7.4l.49-.44c.51-.44,1-.91,1.57-1.35,10.94-9.36,21.76-15.28,24.19-13.21S652.24,566,641.3,575.35Z" transform="translate(-583.96 -467.12)"/><path class="cls-1" d="M670.52,509.24c-2.92-.42-7.88-13.71-11.07-29.69-.19-1-.39-2-.56-3-.42-3.46,1.3-5.85,4-5.45s5.55,3.47,6.53,7c.22,1,.44,2,.64,3.05C673.27,497.07,673.46,509.68,670.52,509.24Z" transform="translate(-583.96 -467.12)"/><path class="cls-1" d="M692.43,601.42c0,2.87-1.67,4.73-4.1,4.37-2.72-.4-5.47-3.36-6.48-6.84a.35.35,0,0,1-.05-.13c-.22-1-.44-2-.63-3.06-3.19-16-3.39-28.55-.45-28.12s7.88,13.71,11.07,29.68c.19,1,.39,2,.56,3A8.34,8.34,0,0,1,692.43,601.42Z" transform="translate(-583.96 -467.12)"/><path class="cls-1" d="M747.94,552.76l-3.55-.48c-18.65-2.73-34.18-7-34.67-9.47s14.21-2.34,32.87.38c1.18.17,2.38.36,3.54.55,4.14.82,7.7,3.21,8.17,5.58S752,553.12,747.94,552.76Z" transform="translate(-583.96 -467.12)"/><path class="cls-1" d="M720.78,507.25c-.66.59-1.34,1.21-2.06,1.8-10.94,9.38-21.76,15.27-24.18,13.2s4.46-11.34,15.4-20.72c.71-.6,1.4-1.19,2.11-1.76a7.24,7.24,0,0,1,8.64.09A5,5,0,0,1,720.78,507.25Z" transform="translate(-583.96 -467.12)"/><path class="cls-1" d="M697.6,557.26c-8.83,7.57-25.83,5.26-38-5.13s-14.82-25-6-32.52,25.83-5.26,38,5.14S706.43,549.7,697.6,557.26Z" transform="translate(-583.96 -467.12)"/><ellipse class="cls-2" cx="490.67" cy="94.25" rx="11.49" ry="9.42"/><path class="cls-2" d="M1184.13,506.24c1.61,3.57,16-.58,32.22-9.26,1-.56,2.06-1.13,3.07-1.69,3.39-2.24,4.91-6.47,3.41-9.8s-5.49-4.61-9.18-3.05c-1,.52-2.06,1.06-3.1,1.62C1194.36,492.74,1182.53,502.68,1184.13,506.24Z" transform="translate(-583.96 -467.12)"/><path class="cls-2" d="M848.29,480.78A220.26,220.26,0,0,1,882.74,478c37.89,0,57.41,16.57,57.41,37.85,0,27.88-29.16,41.44-62.69,41.44a97.5,97.5,0,0,1-10.34-.57v52.74H848.29Zm18.83,62.72c3.45.38,8.27.56,11,.56,23.65,0,41.57-9,41.57-26.36,0-15.82-13.1-26.18-36.52-26.18a137,137,0,0,0-16.08.94Z" transform="translate(-583.96 -467.12)"/><path class="cls-2" d="M961.53,524.29c9-4.15,21.59-6.78,34-6.78,27.79,0,39,12.24,39,32.21v59.7H1018L1016,596.05c-6.43,9.79-17,15.26-31.46,15.26-16.54,0-32.15-8.67-32.15-26.18,0-20.54,21.58-30.89,48-30.89a95.25,95.25,0,0,1,15.39,1.12v-7c0-12.06-8.72-18.08-24.8-18.08a67.92,67.92,0,0,0-28.25,6.78Zm54.2,42.57a72.08,72.08,0,0,0-13.55-1.13c-17.68,0-29.62,7.53-29.62,18.45,0,9.23,7.34,15.07,17.91,15.07,13.09,0,25.26-9.79,25.26-24.67Z" transform="translate(-583.96 -467.12)"/><path class="cls-2" d="M1174,520.14V532.2h-29.62v51.23c0,10.55,6.66,15.26,16.54,15.26a37.88,37.88,0,0,0,12.17-1.7l.91,11.49c-4.13,1.7-10.79,2.83-17.22,2.83-18.37,0-31.23-7.16-31.23-26.75V532.2h-17.23V520.14h17.23V496.41h18.83v23.73Z" transform="translate(-583.96 -467.12)"/><path class="cls-2" d="M1195.6,519.39h18.83v90H1195.6Z" transform="translate(-583.96 -467.12)"/><path class="cls-2" d="M1265.42,535.4c6.43-12.43,20.44-17.89,33.53-17.89,23.65,0,36.51,13.37,36.51,31.83v60.08h-18.83V553.86c0-12.81-7.12-22.79-24.35-22.79-14.7,0-26.86,12.43-26.86,28.07v50.28h-18.84V471h18.84Z" transform="translate(-583.96 -467.12)"/></svg>